<?xml version="1.0" encoding="utf-8"?>
<!-- Generator: Adobe Illustrator 26.2.1, SVG Export Plug-In . SVG Version: 6.00 Build 0)  -->
<svg version="1.1" xmlns="http://www.w3.org/2000/svg" xmlns:xlink="http://www.w3.org/1999/xlink" x="0px" y="0px"
	 viewBox="0 0 407.3 113" style="enable-background:new 0 0 407.3 113;" xml:space="preserve">
<style type="text/css">
	.st0{fill:#FFFFFF;}
	.st1{fill:#7A0505;}
	.st2{fill:#C0C0C0;}
	.st3{fill:#FFFFFF;stroke:#FFFFFF;stroke-width:2;stroke-miterlimit:10;}
</style>
<g id="Capa_2">
</g>
<g id="Capa_1">
	<circle class="st0" cx="60.8" cy="57.1" r="50.2"/>
	<path class="st1" d="M95.6,33.2C84.4,26.5,73.2,19.8,61.9,13C49.5,20.8,37,28.5,24.6,36.3c-0.1,12.9-0.2,25.8-0.3,38.7"/>
	<path class="st2" d="M23.8,75.2c11.2,7.6,22.5,15.2,33.7,22.8c12.2-6.3,24.3-12.7,36.5-19C81.2,71.5,68.4,64,55.6,56.6"/>
	<path class="st1" d="M76,47.7c4.1-2.3,8.2-4.7,12.3-7.1c4.5,2.7,9.1,5.4,13.6,8.2c0,4.5,0.1,9,0.1,13.6"/>
	<path class="st2" d="M102.2,62.4c-4.1,2.7-8.2,5.3-12.3,8c-4.4-2.2-8.9-4.4-13.3-6.7c4.7-2.6,9.3-5.2,14-7.8"/>
	<g>
		<path class="st3" d="M126.6,45.9c-1.7-1.2-2.5-3-2.5-5.3V25.1c0-2.3,0.8-4,2.5-5.3c1.7-1.2,4.1-1.9,7.2-1.9c3.2,0,5.6,0.6,7.2,1.9
			c1.7,1.2,2.5,3,2.5,5.3v3.1h-6.2v-3.4c0-1.8-1.1-2.7-3.3-2.7c-2.2,0-3.3,0.9-3.3,2.7V41c0,1.8,1.1,2.7,3.3,2.7
			c2.2,0,3.3-0.9,3.3-2.7v-4.4h6.2v4.1c0,2.3-0.8,4-2.5,5.3c-1.7,1.2-4.1,1.9-7.2,1.9C130.7,47.8,128.3,47.1,126.6,45.9z"/>
		<path class="st3" d="M159.2,45.9c-1.7-1.3-2.6-3.1-2.6-5.4V25.2c0-2.3,0.9-4.1,2.6-5.4c1.7-1.3,4.2-1.9,7.4-1.9s5.7,0.6,7.4,1.9
			c1.7,1.3,2.6,3.1,2.6,5.4v15.3c0,2.3-0.9,4.1-2.6,5.4c-1.7,1.3-4.2,1.9-7.4,1.9S160.9,47.1,159.2,45.9z M170,40.8V24.9
			c0-1.9-1.1-2.9-3.4-2.9s-3.4,1-3.4,2.9v15.8c0,1.9,1.1,2.9,3.4,2.9S170,42.7,170,40.8z"/>
		<path class="st3" d="M190.5,18.3h8.3l6.4,17.4h0.1V18.3h5.9v29h-6.8l-7.9-21.2h-0.1v21.2h-5.9V18.3z"/>
		<path class="st3" d="M226.9,45.9c-1.6-1.3-2.5-3.1-2.5-5.4v-1.7h6.2v2c0,1.9,1.1,2.8,3.4,2.8c1.1,0,2-0.2,2.5-0.7
			c0.6-0.5,0.9-1.2,0.9-2.2c0-1.2-0.4-2.3-1.2-3.2c-0.8-0.9-2.3-2-4.4-3.3c-2.7-1.7-4.6-3.2-5.7-4.5c-1.1-1.3-1.6-2.9-1.6-4.5
			c0-2.3,0.8-4.1,2.5-5.3c1.7-1.3,4.1-1.9,7.3-1.9c3.2,0,5.5,0.6,7.2,1.9c1.6,1.3,2.4,3.1,2.4,5.4v1.2h-6.2v-1.5
			c0-1-0.3-1.7-0.8-2.2c-0.6-0.5-1.4-0.7-2.5-0.7c-2.2,0-3.3,0.9-3.3,2.8c0,1.1,0.4,2,1.2,2.9s2.3,2,4.5,3.3
			c2.8,1.7,4.7,3.2,5.7,4.5c1,1.4,1.6,2.9,1.6,4.8c0,2.4-0.9,4.2-2.5,5.5c-1.7,1.3-4.2,1.9-7.4,1.9
			C230.9,47.8,228.5,47.1,226.9,45.9z"/>
		<path class="st3" d="M259.4,45.9c-1.7-1.3-2.6-3.1-2.6-5.4V25.2c0-2.3,0.9-4.1,2.6-5.4c1.7-1.3,4.2-1.9,7.4-1.9s5.7,0.6,7.4,1.9
			c1.7,1.3,2.6,3.1,2.6,5.4v15.3c0,2.3-0.9,4.1-2.6,5.4c-1.7,1.3-4.2,1.9-7.4,1.9S261.1,47.1,259.4,45.9z M270.2,40.8V24.9
			c0-1.9-1.1-2.9-3.4-2.9s-3.4,1-3.4,2.9v15.8c0,1.9,1.1,2.9,3.4,2.9S270.2,42.7,270.2,40.8z"/>
		<path class="st3" d="M290.7,18.3h9.8c3.4,0,5.9,0.5,7.4,1.6c1.6,1.1,2.3,2.8,2.3,5v1.8c0,3-1.4,4.9-4.3,5.7v0.1
			c1.6,0.3,2.7,1,3.4,2c0.7,1,1,2.4,1,4.1v5.1c0,0.8,0,1.5,0.1,2c0.1,0.5,0.3,1,0.6,1.5h-6.7c-0.2-0.5-0.4-0.9-0.5-1.3
			s-0.1-1.2-0.1-2.2v-5.3c0-1.3-0.3-2.3-0.9-2.8c-0.6-0.5-1.7-0.8-3.2-0.8h-2.3v12.4h-6.6V18.3z M299.7,30.8c1.3,0,2.3-0.2,3-0.7
			c0.7-0.5,1-1.3,1-2.4v-2.2c0-1.1-0.3-1.8-0.8-2.3c-0.5-0.5-1.4-0.7-2.6-0.7h-3v8.3H299.7z"/>
		<path class="st3" d="M326.4,45.9c-1.7-1.2-2.5-3-2.5-5.3V25.1c0-2.3,0.8-4,2.5-5.3c1.7-1.2,4.1-1.9,7.2-1.9c3.2,0,5.6,0.6,7.2,1.9
			c1.7,1.2,2.5,3,2.5,5.3v3.1h-6.2v-3.4c0-1.8-1.1-2.7-3.3-2.7c-2.2,0-3.3,0.9-3.3,2.7V41c0,1.8,1.1,2.7,3.3,2.7
			c2.2,0,3.3-0.9,3.3-2.7v-4.4h6.2v4.1c0,2.3-0.8,4-2.5,5.3c-1.7,1.2-4.1,1.9-7.2,1.9C330.4,47.8,328,47.1,326.4,45.9z"/>
		<path class="st3" d="M356.7,18.3h6.6v29h-6.6V18.3z"/>
		<path class="st3" d="M379.7,45.9c-1.7-1.3-2.6-3.1-2.6-5.4V25.2c0-2.3,0.9-4.1,2.6-5.4c1.7-1.3,4.2-1.9,7.4-1.9s5.7,0.6,7.4,1.9
			c1.7,1.3,2.6,3.1,2.6,5.4v15.3c0,2.3-0.9,4.1-2.6,5.4c-1.7,1.3-4.2,1.9-7.4,1.9S381.5,47.1,379.7,45.9z M390.6,40.8V24.9
			c0-1.9-1.1-2.9-3.4-2.9s-3.4,1-3.4,2.9v15.8c0,1.9,1.1,2.9,3.4,2.9S390.6,42.7,390.6,40.8z"/>
	</g>
	<g>
		<path class="st3" d="M126.3,95.8c-1.7-1.8-2.5-4.3-2.5-7.6V65.7c0-3.3,0.8-5.8,2.5-7.6c1.7-1.8,4.1-2.7,7.2-2.7
			c3.2,0,5.6,0.9,7.2,2.7c1.7,1.8,2.5,4.3,2.5,7.6v4.4H137v-4.9c0-2.6-1.1-3.9-3.3-3.9c-2.2,0-3.3,1.3-3.3,3.9v23.5
			c0,2.6,1.1,3.8,3.3,3.8c2.2,0,3.3-1.3,3.3-3.8v-6.4h6.2v5.9c0,3.3-0.8,5.8-2.5,7.6c-1.7,1.8-4.1,2.7-7.2,2.7
			C130.4,98.5,128,97.6,126.3,95.8z"/>
		<path class="st3" d="M151.9,95.8c-1.7-1.8-2.6-4.4-2.6-7.8V65.9c0-3.4,0.9-6,2.6-7.8c1.7-1.8,4.2-2.8,7.4-2.8s5.7,0.9,7.4,2.8
			c1.7,1.8,2.6,4.4,2.6,7.8V88c0,3.4-0.9,6-2.6,7.8c-1.7,1.8-4.2,2.8-7.4,2.8S153.6,97.6,151.9,95.8z M162.7,88.4V65.5
			c0-2.8-1.1-4.1-3.4-4.1s-3.4,1.4-3.4,4.1v22.9c0,2.8,1.1,4.1,3.4,4.1S162.7,91.2,162.7,88.4z"/>
		<path class="st3" d="M176.2,55.9h8.3l6.4,25.1h0.1V55.9h5.9v42h-6.8l-7.9-30.7H182v30.7h-5.9V55.9z"/>
		<path class="st3" d="M205.5,95.8c-1.6-1.8-2.5-4.4-2.5-7.8v-2.4h6.2v2.9c0,2.7,1.1,4.1,3.4,4.1c1.1,0,2-0.3,2.5-1
			c0.6-0.7,0.9-1.7,0.9-3.2c0-1.8-0.4-3.3-1.2-4.7c-0.8-1.3-2.3-2.9-4.4-4.8c-2.7-2.4-4.6-4.6-5.7-6.5c-1.1-1.9-1.6-4.1-1.6-6.6
			c0-3.3,0.8-5.9,2.5-7.7c1.7-1.8,4.1-2.7,7.3-2.7c3.2,0,5.5,0.9,7.2,2.7c1.6,1.8,2.4,4.4,2.4,7.8v1.7h-6.2v-2.2
			c0-1.4-0.3-2.5-0.8-3.1c-0.6-0.7-1.4-1-2.5-1c-2.2,0-3.3,1.3-3.3,4c0,1.5,0.4,2.9,1.2,4.3c0.8,1.3,2.3,2.9,4.5,4.8
			c2.8,2.4,4.7,4.6,5.7,6.5c1,2,1.6,4.3,1.6,6.9c0,3.4-0.9,6.1-2.5,7.9c-1.7,1.8-4.2,2.8-7.4,2.8C209.6,98.5,207.1,97.6,205.5,95.8z
			"/>
		<path class="st3" d="M234.1,61.9h-6.9v-6h20.4v6h-6.9v36h-6.6V61.9z"/>
		<path class="st3" d="M253.1,55.9h9.8c3.4,0,5.9,0.8,7.4,2.4c1.6,1.6,2.3,4,2.3,7.3v2.6c0,4.4-1.4,7.1-4.3,8.3v0.1
			c1.6,0.5,2.7,1.5,3.4,2.9c0.7,1.5,1,3.5,1,5.9v7.4c0,1.2,0,2.2,0.1,2.9c0.1,0.7,0.3,1.5,0.6,2.2h-6.7c-0.2-0.7-0.4-1.3-0.5-1.9
			c-0.1-0.6-0.1-1.7-0.1-3.2v-7.7c0-1.9-0.3-3.3-0.9-4s-1.7-1.1-3.2-1.1h-2.3v18h-6.6V55.9z M262.1,73.9c1.3,0,2.3-0.3,3-1
			c0.7-0.7,1-1.8,1-3.4v-3.2c0-1.5-0.3-2.6-0.8-3.3c-0.5-0.7-1.4-1-2.6-1h-3v12H262.1z"/>
		<path class="st3" d="M282,95.8c-1.7-1.8-2.5-4.4-2.5-7.8v-32h6.6v32.5c0,1.4,0.3,2.5,0.9,3.1c0.6,0.6,1.4,1,2.5,1s1.9-0.3,2.5-1
			c0.6-0.6,0.9-1.7,0.9-3.1V55.9h6.4v32c0,3.4-0.8,6-2.5,7.8c-1.7,1.8-4.1,2.7-7.3,2.7S283.7,97.6,282,95.8z"/>
		<path class="st3" d="M311.4,61.9h-6.9v-6h20.4v6H318v36h-6.6V61.9z"/>
		<path class="st3" d="M330.5,55.9h18v6h-11.4V73h9.1v6h-9.1v12.9h11.4v6h-18V55.9z"/>
		<path class="st3" d="M356.7,95.8c-1.7-1.8-2.5-4.3-2.5-7.6V65.7c0-3.3,0.8-5.8,2.5-7.6c1.7-1.8,4.1-2.7,7.2-2.7
			c3.2,0,5.6,0.9,7.2,2.7c1.7,1.8,2.5,4.3,2.5,7.6v4.4h-6.2v-4.9c0-2.6-1.1-3.9-3.3-3.9c-2.2,0-3.3,1.3-3.3,3.9v23.5
			c0,2.6,1.1,3.8,3.3,3.8c2.2,0,3.3-1.3,3.3-3.8v-6.4h6.2v5.9c0,3.3-0.8,5.8-2.5,7.6c-1.7,1.8-4.1,2.7-7.2,2.7
			C360.8,98.5,358.4,97.6,356.7,95.8z"/>
		<path class="st3" d="M378.7,92.1L391,61.9h-11.6v-6H398v5.9l-12.2,30.1H398v6h-19.3V92.1z"/>
	</g>
</g>
</svg>
