<?xml version="1.0" encoding="utf-8"?>
<!-- Generator: Adobe Illustrator 24.0.2, SVG Export Plug-In . SVG Version: 6.00 Build 0)  -->
<svg version="1.1" id="Capa_1" xmlns="http://www.w3.org/2000/svg" xmlns:xlink="http://www.w3.org/1999/xlink" x="0px" y="0px"
	 viewBox="0 0 800 215" style="enable-background:new 0 0 800 215;" xml:space="preserve">
<g>
	<path style="fill:#0767AE;" d="M106.2,148.09c-3.08,0.91-5.67,2.8-8.45,4.28c-8.43,4.45-17.11,8.43-25.12,13.63
		c-1.87,1.21-3.65,2.58-5.36,4c-2.89,2.41-5.38,5.11-5.01,10c-4.03-4.1-6.14-8.36-6.68-13.33c-0.62-5.71,1.87-10.37,5.41-14.55
		c5.06-5.97,11.34-10.47,17.86-14.66c1.01-0.65,2.02-1.3,3.03-1.95c4.76-2.71,9.54-5.39,14.27-8.15c2.5-1.46,5.24-2.53,7.43-4.49
		c2.29-0.61,4.09-2.11,5.98-3.39c4.24-2.87,8.42-5.85,11.68-9.88c4.22-3.45,7.18-7.67,8-13.19c0.28-1.88-0.63-3.71-0.22-5.59
		c10.86,6.32,13.92,17.4,8.17,29.56c-3.31,6.99-8.42,12.45-14.44,17.15c-4.11,2.59-8.27,5.12-12.31,7.81
		C109.05,146.28,107.25,146.62,106.2,148.09z"/>
	<path style="fill:#0767AE;" d="M101.54,73.7c3.94-2.01,6.54-5.47,9.13-8.84c3.4-4.44,5.65-9.28,3.03-15.64
		c3.9,2.45,6.24,5.42,8.23,8.67c5.36,8.74,5.52,17.47-0.24,26.13c-0.23,0.35-0.35,0.76-0.52,1.15c-1.75,1.85-3.49,3.72-5.25,5.56
		c-3.36,3.51-7.61,5.97-11.17,9.24c-6.57,3.97-13.15,7.94-19.72,11.9c-3.38,0.93-6.13,3.08-9.09,4.78
		c-4.23,2.43-8.81,4.28-12.59,7.46c-6.23,3.57-12.32,7.28-13.67,15.41c-1-0.27-1.51-1.3-2.11-2.15c-6.05-8.55-6.01-16.46,0.09-24.98
		c0.3-0.41,0.51-0.88,0.76-1.33c1.41-1.36,2.85-2.71,4.24-4.1c3.54-3.54,8.03-5.8,11.89-8.91c6.14-3.24,12.31-6.43,17.83-10.7
		c0.8-0.06,1.46-0.44,2.11-0.89c3.81-2.65,7.66-5.24,11.44-7.94C97.92,77.08,100.16,75.88,101.54,73.7z"/>
	<path style="fill:#EF9329;" d="M101.54,73.7c-1.38,2.18-3.62,3.38-5.63,4.81c-3.78,2.7-7.63,5.29-11.44,7.94
		c-0.65,0.45-1.31,0.83-2.11,0.89c-9.91-6.17-19.56-12.62-24.28-24c-2.94-7.1-1.44-13.79,2.15-20.26c1.95-3.52,4.74-6.21,7.65-8.74
		c0.63,0.42,0.58,0.78,0.49,1.09c-1.69,6.18,0.87,11.1,4.75,15.54c6.05,6.91,13.39,12.26,20.96,17.38
		C96.61,70.06,99.54,71.25,101.54,73.7z"/>
	<path style="fill:#0767AE;" d="M327.02,106.29c-6.08,0-11.66,0-18.03,0c0-6.44,0-12.85,0-19.27c0-2.5,0.03-4.99-0.03-7.49
		c-0.17-6.05-2.92-9.35-7.9-9.55c-5.46-0.23-9.74,3.18-10.05,8.89c-0.42,7.96-0.23,15.96-0.31,23.95c-0.01,0.98-0.1,1.95-0.17,3.33
		c-5.89,0-11.6,0-17.63,0c0-16.69,0-33.43,0-50.43c5.47,0,10.74,0,16.2,0c1.53,0.61,0.11,2.79,1.81,3.78
		c3.94-2.61,8.26-4.57,13.2-4.89c12.25-0.81,20.51,5.6,22.5,17.65c0.32,1.96,0.39,3.97,0.4,5.96
		C327.04,87.48,327.02,96.75,327.02,106.29z"/>
	<path style="fill:#0767AE;" d="M233.58,107.46c-22.14-0.01-35.52-20.38-25.67-39.1c5.71-10.85,20.75-16.39,34.43-12.69
		c14.25,3.85,21.57,14.91,19.7,29.75C260.42,98.36,248.65,107.47,233.58,107.46z M223,80.94c0.01,7.12,4.26,12.11,10.41,12.23
		c6.46,0.13,10.75-4.79,10.76-12.32c0.01-7.13-4.27-11.92-10.61-11.89C227.28,69,222.99,73.88,223,80.94z"/>
	<path style="fill:#0767AE;" d="M481.38,55.74c5.78,0,11.37,0,17.67,0c0,6.82-0.01,13.58,0.01,20.33c0.01,2.67-0.2,5.37,0.17,7.99
		c0.58,4.04,2.33,7.3,7.01,7.88c4.37,0.55,8.05-1.7,9.81-6.02c0.91-2.23,0.96-4.54,0.96-6.87c0-7.63,0-15.27,0-23.26
		c5.96,0,11.54,0,17.57,0c0,16.62,0,33.33,0,50.41c-5.17,0-10.42,0-16.35,0c-1.21-0.38,0.41-2.64-1.26-3.6
		c-4.25,2.85-8.85,4.89-14.23,4.86c-11.92-0.07-20.17-6.33-21.17-18.12C480.64,78.32,481.38,67.14,481.38,55.74z"/>
	<path style="fill:#0767AE;" d="M629.49,89.78c3.38,3.24,6.47,6.2,9.81,9.4c-6.75,7.25-15.26,8.65-24.26,8.21
		c-20.26-0.99-32.4-18.44-25.46-36.39c4.83-12.48,19.21-19,34.14-15.48c13.17,3.11,20.63,14.57,18.9,29.91c-11.89,0-23.9,0-36.12,0
		C609.49,94.57,619.7,96.15,629.49,89.78z M625.65,75.98c-1.06-5.91-4.54-8.68-10.34-8.44c-5.38,0.22-8.45,3.12-8.87,8.44
		C612.84,75.98,619.22,75.98,625.65,75.98z"/>
	<path style="fill:#EF9329;" d="M63.34,124.11c3.78-3.18,8.37-5.03,12.59-7.46c2.96-1.7,5.72-3.85,9.09-4.78
		c1.97,1.21,3.93,2.44,5.93,3.61c4.2,2.48,8.42,4.92,12.63,7.38c-2.19,1.97-4.93,3.04-7.43,4.49c-4.73,2.76-9.51,5.44-14.27,8.15
		c-5.64-3.08-11.38-6.01-16.71-9.62C64.44,125.4,63.75,124.9,63.34,124.11z"/>
	<path style="fill:#0767AE;" d="M382.24,58.92c-1.95,4.34-3.63,8.08-5.43,12.08c-5.03-2.03-9.87-3.75-15.11-3.46
		c-1.48,0.08-2.98,0.23-4.42,0.57c-1.45,0.35-3.08,0.96-3.06,2.77c0.02,1.77,1.5,2.44,3.05,2.74c4.73,0.93,9.5,1.65,14.17,2.82
		c8.3,2.07,12.2,6.4,12.52,13.43c0.31,6.7-3.56,12.41-10.87,15.06c-12.52,4.53-24.68,2.9-37.17-2.54c1.89-4.3,3.54-8.05,5.43-12.36
		c5.62,2.51,11.37,4.51,17.58,4.48c2.17-0.01,4.38,0.07,6.32-1.06c2.46-1.44,2.46-3.22-0.07-4.38c-1.92-0.88-4.13-1.17-6.24-1.52
		c-4.26-0.71-8.59-1.04-12.65-2.69c-10.47-4.26-12.59-16.83-4.07-24.28c3.9-3.41,8.64-4.83,13.67-5.53
		C364.81,53.82,373.36,55,382.24,58.92z"/>
	<path style="fill:#0767AE;" d="M689.85,86.38c4.5,2.31,8.76,4.5,12.93,6.64c-1.46,9-13.63,15.82-27.25,14.27
		c-14.73-1.68-24.79-11.51-25.43-24.88c-0.63-13.22,7.88-23.98,21.18-26.96c15.28-3.42,29.26,3.34,31.7,13.46
		c-4.26,2.2-8.64,4.45-12.97,6.68c-6.04-7.7-12.73-8.72-18.43-3.37c-4.74,4.45-4.27,13.73,0.44,18.13
		C677.06,95.06,683.81,93.69,689.85,86.38z"/>
	<path style="fill:#0767AE;" d="M199.54,68.9c-4.35,2.25-8.73,4.51-13.03,6.73c-6.47-7.25-13.29-8.57-18.17-3.75
		c-4.77,4.71-4.65,14,0.24,18.5c5.06,4.67,11.62,3.32,17.67-3.82c4.56,2.02,9.15,4.14,13.36,6.95c-5.05,11.36-17.43,16.32-31.89,13
		c-13.57-3.12-21.52-13.3-21.03-26.96c0.46-12.87,9.67-22.32,23.91-24.55C184.14,52.89,195.82,58.41,199.54,68.9z"/>
	<path style="fill:#0767AE;" d="M709.48,106.27c-1.16-6.53,0.04-11.46,4.47-16.01c6.32-6.49,11.97-13.63,18.74-21.46
		c-8.25,0-15.27,0-22.51,0c0-4.69,0-8.75,0-13.08c15.01,0,29.73,0,44.71,0c0.86,5.82,0.82,10.85-3.85,15.54
		c-6.41,6.45-12.02,13.68-18.77,21.49c8.45,0,15.92,0,23.57,0c0.58,4.91,0.56,9.13,0.19,13.51
		C740.44,106.27,725.06,106.27,709.48,106.27z"/>
	<path style="fill:#0767AE;" d="M395.66,71.23c-2-0.21-2.98-0.33-3.96-0.41c-0.97-0.08-1.95-0.1-3.26-0.17c0-4.27,0-8.32,0-12.49
		c1.95-1.6,4.59-0.05,6.7-1.34c1.1-3.88,0.01-7.91,0.73-12.25c5.79,0,11.64,0,17.9,0c0,4.22,0,8.17,0,12.17
		c3.84,1.41,7.61-0.06,11.26,1.11c0,4.14,0,8.24,0,12.84c-3.61,0-7.04,0-11.1,0c0,6.54-0.19,12.63,0.08,18.7
		c0.14,3.02,2.64,4.06,5.39,3.96c1.62-0.06,3.22-0.56,5.17-0.93c1.4,3.95,2.76,7.8,4.28,12.08c-8.27,3.94-16.28,4.13-24.19,0.45
		c-6.88-3.2-8.89-9.47-8.99-16.53C395.6,82.82,395.66,77.21,395.66,71.23z"/>
	<path style="fill:#0767AE;" d="M579.43,92.59c1.34,3.79,2.7,7.64,4.03,11.4c-13.63,9.43-31.72,1.26-32.88-14.64
		c-0.43-5.92-0.07-11.89-0.07-17.32c-2.66-1.89-5.02-0.73-7.27-1.74c0-3.98,0-8.08,0-12.29c1.82-1.37,4.18-0.06,6.41-1.08
		c1.63-3.76-0.07-8.04,1.1-12.4c5.63,0,11.36,0,17.68,0c0,4.12,0,8.18,0,12.22c3.91,1.31,7.47,0.1,11.24,1.03
		c0.78,4.08,0.35,8.32,0.26,12.89c-3.52,0-6.82,0-10.78,0c-1.1,6.89-1.36,13.54,0.14,20.1C569.92,93.47,572.74,93.76,579.43,92.59z"
		/>
	<path style="fill:#EF9329;" d="M64.53,98.05c-3.85,3.11-8.35,5.37-11.89,8.91c-1.39,1.39-2.82,2.73-4.24,4.1
		c-3.78-3.12-5.14-7.48-5.46-12.05c-0.6-8.58,2.36-15.98,8.46-22.08c0.61-0.61,1.26-1.16,2.18-1.23c0.49,0.14,0.37,0.57,0.32,0.84
		c-1.44,7.56,2.19,13.06,7.31,17.94C62.4,95.6,63.65,96.65,64.53,98.05z"/>
	<path style="fill:#EF9329;" d="M471.87,156.27c2.03-0.58,2.51-2.04,3-3.45c2.79-8.05,6.65-15.63,10.3-23.3
		c1.02-2.16,1.82-4.44,5.21-4.43c3.29,0.01,4.86,1.59,6.05,4.16c4.3,9.32,8.58,18.64,12.85,27.93c-6.13,3.19-6.57,3.15-9.5-2.1
		c-1.07-1.91-2.58-2.44-4.51-2.43c-3.16,0.01-6.32,0.1-9.49,0.07c-2.3-0.02-3.76,0.98-4.51,3.15c-0.26,0.75-0.55,1.63-1.12,2.11
		c-2.11,1.78-16.67,0.7-18.28-1.53c-1.63-2.26-4.54-3.23-5.47-6.27c-0.62-2.03-2.97-1.77-4.81-1.58c-2.28,0.25-2.31,2.01-2.34,3.72
		c-0.01,0.5-0.01,1-0.03,1.5c-0.16,6.21-0.82,6.59-6.83,3.99c0.4-9.07,0.15-18.15-0.33-27.21c-0.2-3.68,0.88-5.69,4.99-5.44
		c3.98,0.25,7.99,0.02,11.97,0.21c4.83,0.23,9.11,2.21,10.65,6.87c1.34,4.04,1.48,8.49-2.42,11.94c-3.15,2.78-2.77,5.78,0.31,8.51
		C468.91,153.9,469.91,155.52,471.87,156.27z M449.33,141.55c3.46,0,6.43,0.09,9.38-0.03c2.97-0.11,4.5-1.78,4.59-4.78
		c0.09-3.06-1.61-4.77-4.4-5.04c-3.08-0.29-6.2-0.07-9.58-0.07C449.33,135.05,449.33,137.95,449.33,141.55z M496.15,145.84
		c-1.51-4.26-2.49-8.14-5.66-11.51c-2.05,3.98-3.92,7.48-4.69,11.9C489.44,146.39,492.5,146.79,496.15,145.84z"/>
	<path style="fill:#EF9329;" d="M104.74,99.97c3.56-3.28,7.81-5.73,11.17-9.24c1.76-1.84,3.5-3.7,5.25-5.56
		c3.16,1.14,5.56,3.33,7.87,5.65c-0.42,1.88,0.5,3.71,0.22,5.59c-0.83,5.51-3.78,9.73-8,13.19c-1.77-1-3.61-1.91-5.31-3.03
		C112.32,104.16,108.09,102.82,104.74,99.97z"/>
	<path style="fill:#0767AE;" d="M437.93,55.68c5.69,0,10.97,0,16.02,0c1.37,1.35,0.6,3.04,1.39,4.53c4.78-3.53,9.88-5.64,16.18-5.49
		c0,5.16,0,10.21,0,15.31c-0.22,0.13-0.51,0.44-0.78,0.42c-12.18-0.6-15.68,5.18-15.12,16.22c0.33,6.43,0.06,12.89,0.06,19.62
		c-6.18,0-11.78,0-17.76,0C437.93,89.53,437.93,72.82,437.93,55.68z"/>
	<path style="fill:#EF9329;" d="M106.2,148.09c1.06-1.47,2.85-1.81,4.26-2.74c4.04-2.69,8.2-5.22,12.31-7.81
		c4.62,4.85,5.75,13.67,2.55,20.5c-1.09,2.32-2.3,4.61-4.76,6.45c-0.79-7.65-6.64-10.84-12.07-14.39
		C107.6,149.52,106.75,149,106.2,148.09z"/>
	<path style="fill:#EF9329;" d="M615.37,145.23c-1.61-5.32-1.19-6.03,3.8-6.12c2.49-0.05,4.99,0.03,7.48,0.1
		c0.48,0.01,0.94,0.25,1.58,0.43c1.29,3.83,1.25,7.81,0.75,11.74c-0.56,4.41-5.02,7.79-11.12,8.12c-8.64,0.48-15.4-2.21-18.46-9.61
		c-3.16-7.66-1.56-16.33,4-21.1c5.63-4.84,15.43-5.51,22.06-1.58c1.28,0.76,2.36,1.68,1.74,3.12c-0.7,1.64-1.79,3.33-4.03,2.97
		c-1.3-0.21-2.56-0.7-3.79-1.18c-5.25-2.05-8.65-1.1-12.1,3.44c-3.01,3.97-2.97,9.23,0.1,13.45c2.16,2.97,8.37,4.44,12.34,2.91
		c1.88-0.72,3.14-1.88,2.8-4.11c-0.34-2.3-2.1-2.18-3.79-2.24C617.61,145.54,616.41,146.09,615.37,145.23z"/>
	<path style="fill:#EF9329;" d="M572.07,141.09c-2.15,5.33,0.18,11.26-1.26,17.05c-1.78,1.07-3.66,0.41-6.06,0.34
		c0-11.21,0-22.04,0-32.71c3.73-1.13,5.84-0.24,7.86,2.45c3.44,4.57,6.37,9.64,11.72,14.02c2.02-5.76-0.4-11.24,1.99-16.39
		c1.45-1.03,3.33-0.83,5.96,0.15c0,6.25-0.03,12.7,0.02,19.16c0.02,2.82,0.09,5.66,0.36,8.46c0.21,2.11,0.22,4.28-2.01,4.98
		c-2.24,0.7-3.89-0.51-5.32-2.6c-3.29-4.79-6.98-9.3-10.51-13.93C574.28,141.36,573.6,140.97,572.07,141.09z"/>
	<path style="fill:#EF9329;" d="M514.11,157.86c0-10.78,0-21.36,0-32.55c6.57,0.29,12.85-1.13,18.96,1
		c8.05,2.8,11.11,8.52,10.3,18.64c-0.61,7.57-4.91,12.08-12.92,13.52C527.34,159.03,517.77,158.74,514.11,157.86z M521.11,152.15
		c5.89,0.49,11.35,0.78,14.66-4.6c2.33-3.8,2.21-8.19-0.37-11.83c-3.5-4.96-8.74-4.47-14.29-3.62
		C521.11,138.73,521.11,145.14,521.11,152.15z"/>
	<path style="fill:#EF9329;" d="M247.71,138.86c0,6.63,0,12.73,0,18.6c-2.15,1.35-3.92,1.05-6.18,0.54c0-10.61,0-21.29,0-31.85
		c3.34-1.29,5.36,0.05,7.16,2.35c4.06,5.17,8.21,10.27,13.29,15.1c0-5.7,0-11.4,0-16.91c5.83-1.76,6.69-1.27,6.72,3.63
		c0.05,7.83,0.04,15.65-0.01,23.48c-0.01,1.58,0.55,3.57-1.49,4.35c-2.12,0.81-3.48-0.69-4.62-2.13
		c-3.51-4.43-6.94-8.93-10.38-13.42C251.2,141.29,250.33,139.87,247.71,138.86z"/>
	<path style="fill:#EF9329;" d="M334.81,157.82c-7.54,2.61-10.16-3.34-13.59-7.19c-2.28-2.56-4.32-3.94-7.71-2.57
		c-1.38,3.13-0.08,6.59-1,9.69c-1.96,0.98-3.74,0.7-5.91,0.2c0-10.5,0-21.05,0-32.13c6.36-0.31,12.47-0.79,18.51,0.27
		c4.71,0.82,7.73,3.88,8.4,8.72c0.61,4.41-0.53,8.25-4.58,10.77c-0.69,0.43-1.32,0.97-2.05,1.52
		C328.37,151.45,332.63,153.61,334.81,157.82z M313.3,141.6c3.2,0,6.13,0.09,9.06-0.03c2.86-0.12,4.56-1.54,4.73-4.6
		c0.17-3.05-1.39-4.8-4.15-5.18c-3.2-0.44-6.5-0.71-9.68,0.42C312.68,135.17,312.74,137.94,313.3,141.6z"/>
	<path style="fill:#EF9329;" d="M201.13,129.17c-1.39,4.21-3.39,4.13-6.62,2.69c-7.74-3.44-15.01,0.86-16.03,9.23
		c-0.49,4.06,0.68,7.68,4.15,10.07c3.7,2.55,7.79,2.7,11.88,0.94c2.79-1.2,2.4-3.61,2-5.95c-1.57-1.54-3.5-0.8-5.26-0.93
		c-1.73-0.13-2.85-0.78-2.89-2.68c-0.04-2.04,0.92-3.1,2.99-3.1c3.31,0,6.61,0,10.36,0c0.96,4.65,0.83,9.06,0.35,13.47
		c-0.15,1.37-1.16,2.39-2.31,3.12c-6.67,4.2-13.72,4.22-20.37,0.55c-6.03-3.33-7.52-9.6-7.09-15.94
		c0.46-6.74,3.82-11.88,10.41-14.54C189.4,123.39,195.31,124.85,201.13,129.17z"/>
	<path style="fill:#EF9329;" d="M371.95,157.88c-4.11,1.1-6.98,0.97-8.31-3.02c-0.5-1.51-1.42-2.53-3.26-2.5
		c-4.16,0.07-8.31,0.05-12.47,0.02c-1.74-0.01-2.84,0.75-3.29,2.41c-1.16,4.27-4.2,3.95-7.42,3.26c-0.59-1.78,0.29-3.1,0.89-4.43
		c3.64-8.2,7.37-16.36,10.98-24.57c1.03-2.34,2.26-3.71,5.16-3.61c2.61,0.09,3.83,1.18,4.8,3.41
		C363.2,138.41,367.5,147.92,371.95,157.88z M354.04,133.62c-2.14,4.28-4.24,7.86-4.88,12.25c3.47,0.95,6.65,0.68,10.36,0.15
		C358.09,141.7,356.4,137.91,354.04,133.62z"/>
	<path style="fill:#EF9329;" d="M216.03,131.61c-1.21,2.9-1.06,4.84-0.25,7.46c5.34,0,10.9,0,15.98,0c1.53,1.98,1.32,3.4,0.74,5.23
		c-5.36,1.19-11.04-0.13-16.53,0.77c-1.25,2.2-0.82,4.3-0.36,7.14c5.62,0,11.33,0,16.62,0c1.37,2.27,1.14,3.87,0.53,5.89
		c-7.6,0-15.31,0-23.42,0c0-10.75,0-21.28,0-32.2c7.84,0,15.39,0,22.93,0c1.49,1.67,1.27,3.35,0.19,5.71
		C227.13,131.61,221.56,131.61,216.03,131.61z"/>
	<path style="fill:#EF9329;" d="M282.64,144.78c-1.02,2.74-0.99,4.81-0.04,7.5c5.44,0,11.02,0,16.09,0c1.84,2.06,1.26,3.7,1.1,6.15
		c-7.32,0-14.56,0.03-21.8-0.03c-1.67-0.01-2.26-1.34-2.27-2.77c-0.04-9.78-0.02-19.56-0.02-29.69c8.21,0,15.79,0,23.37,0
		c1.52,1.65,0.89,3.36,0.53,5.69c-5.77,0-11.35,0-16.59,0c-1.64,2.41-1.06,4.39-0.93,6.72c2.8,1.63,5.99,0.76,9.02,0.91
		c1.33,0.07,2.66-0.01,4,0.02c1.99,0.04,4.28-0.29,4.14,2.84c-0.14,3.04-2.45,2.63-4.39,2.65
		C290.71,144.81,286.59,144.78,282.64,144.78z"/>
	<path style="fill:#0767AE;" d="M730.14,130.84c-1.27,1.26-2.32,2.3-3.27,3.24c-9.17-3.36-14.27-2.84-17.47,1.61
		c-2.97,4.13-2.96,10.28,0.01,14.02c3.59,4.53,8.91,4.92,17.29,1.25c1.47,0.78,2.54,2,3.44,3.39c-5.07,6.46-17.03,7.14-23.7,1.38
		c-6.75-5.82-7.38-18.23-1.26-24.92C711.51,123.91,722.94,123.7,730.14,130.84z"/>
	<path style="fill:#EF9329;" d="M410.19,131.33c-0.86-2.09-0.86-3.7,0.26-6.02c7.75,0,15.85-0.22,23.93,0.1
		c3.65,0.14,2.31,3.18,2.25,5.17c-0.48,0.4-0.71,0.74-0.99,0.79c-8.98,1.47-8.98,1.47-8.97,10.67c0,4.33-0.01,8.66-0.02,12.99
		c-0.01,2.44-0.77,4.48-3.61,4.29c-2.65-0.18-3.42-1.98-3.34-4.57c0.16-4.99,0.04-9.99,0.04-14.99c0.01-7.06-0.43-7.54-7.51-8.05
		C411.61,131.67,410.97,131.48,410.19,131.33z"/>
	<path style="fill:#0767AE;" d="M653.88,153.1c6,0,11.1,0,16.01,0c1.05,2,0.88,3.6,0.3,5.49c-7.21,0-14.47,0-22.16,0
		c0-10.59,0-21.28,0-32.06c1.82-0.51,3.56-0.47,5.85,0.27C653.88,135.24,653.88,143.79,653.88,153.1z"/>
	<path style="fill:#0767AE;" d="M697.46,152.97c0.45,2.39,0.45,3.85-0.18,5.61c-7.3,0-14.67,0-22.3,0c0-10.74,0-21.19,0-31.82
		c1.8-1.13,3.72-0.31,6.11-0.3c0,8.86,0,17.43,0,26.5C686.82,152.97,692.08,152.97,697.46,152.97z"/>
	<path style="fill:#EF9329;" d="M557.2,157.49c-2.51,1.63-4.69,1.56-7.21,0.56c-0.32-10.7-0.98-21.38,0.45-31.9
		c1.86-1.53,3.67-0.64,5.89-0.87C557.97,136.24,556.57,146.98,557.2,157.49z"/>
	<path style="fill:#EF9329;" d="M377.16,158.12c0-10.86,0-21.26,0-31.57c1.84-1.33,3.54-1.2,5.87-0.29c0,8.39,0,16.94,0,25.62
		c5.69,1.35,11.03,0.11,16.16,0.93c0.99,1.79,0.93,3.34,0.17,5.31C392.19,158.12,384.98,158.12,377.16,158.12z"/>
	<path style="fill:#FEFEFE;" d="M104.74,99.97c3.35,2.85,7.58,4.19,11.2,6.59c1.69,1.12,3.53,2.03,5.31,3.03
		c-3.27,4.03-7.44,7.01-11.68,9.88c-1.89,1.28-3.69,2.78-5.98,3.39c-4.21-2.46-8.43-4.9-12.63-7.38c-1.99-1.17-3.95-2.41-5.93-3.61
		C91.59,107.9,98.17,103.93,104.74,99.97z"/>
	<path style="fill:#FEFEFE;" d="M223,80.94c-0.01-7.07,4.28-11.94,10.55-11.97c6.34-0.03,10.62,4.76,10.61,11.89
		c-0.01,7.53-4.3,12.45-10.76,12.32C227.26,93.06,223.01,88.07,223,80.94z"/>
	<path style="fill:#FEFEFE;" d="M625.65,75.98c-6.43,0-12.81,0-19.21,0c0.42-5.32,3.49-8.23,8.87-8.44
		C621.11,67.3,624.59,70.07,625.65,75.98z"/>
	<path style="fill:#FEFEFE;" d="M449.33,141.55c0-3.6,0-6.51,0-9.91c3.38,0,6.51-0.23,9.58,0.07c2.79,0.27,4.49,1.98,4.4,5.04
		c-0.09,3-1.63,4.66-4.59,4.78C455.75,141.64,452.78,141.55,449.33,141.55z"/>
	<path style="fill:#FEFEFE;" d="M496.15,145.84c-3.65,0.95-6.71,0.55-10.34,0.39c0.76-4.42,2.64-7.92,4.69-11.9
		C493.66,137.7,494.65,141.58,496.15,145.84z"/>
	<path style="fill:#FEFEFE;" d="M521.11,152.15c0-7.01,0-13.41,0-20.06c5.55-0.85,10.79-1.34,14.29,3.62
		c2.57,3.64,2.7,8.03,0.37,11.83C532.46,152.93,527,152.63,521.11,152.15z"/>
	<path style="fill:#FEFEFE;" d="M313.3,141.6c-0.56-3.66-0.62-6.43-0.05-9.39c3.18-1.13,6.47-0.86,9.68-0.42
		c2.77,0.38,4.32,2.13,4.15,5.18c-0.17,3.07-1.87,4.49-4.73,4.6C319.43,141.69,316.5,141.6,313.3,141.6z"/>
	<path style="fill:#FEFEFE;" d="M354.04,133.62c2.36,4.29,4.04,8.09,5.47,12.4c-3.71,0.53-6.89,0.8-10.36-0.15
		C349.8,141.48,351.9,137.9,354.04,133.62z"/>
</g>
</svg>
